# AST/ASF file generated using VICON BodyLanguage
# -----------------------------------------------
:version 1.10
:name VICON
:units
  mass 1.0
  length 0.45
  angle deg
:documentation
   .ast/.asf automatically generated from VICON data using
   VICON BodyBuilder and BodyLanguage model FoxedUp or BRILLIANT.MOD
:root
   order TX TY TZ RX RY RZ
   axis XYZ
   position 0 0 0  
   orientation 0 0 0 
:bonedata
  begin
     id 1 
     name lhipjoint
     direction 0.702568 -0.596508 0.388042 
     length 2.56661 
     axis 0 0 0  XYZ
  end
  begin
     id 2 
     name lfemur
     direction 0.34202 -0.939693 0  
     length 6.58374  
     axis 0 0 20  XYZ
    dof rx ry rz
    limits (-160.0 20.0)
           (-70.0 70.0)
           (-60.0 70.0)
  end
  begin
     id 3 
     name ltibia
     direction 0.34202 -0.939693 0   
     length 6.62538   
     axis 0 0 20   XYZ
    dof rx
    limits (-10.0 170.0)
  end
  begin
     id 4 
     name lfoot
     direction 0.10455 -0.287249 0.952133   
     length 2.26699   
     axis -90 7.62852e-016 20   XYZ
    dof rx rz
    limits (-45.0 90.0)
           (-70.0 20.0)
  end
  begin
     id 5 
     name ltoes
     direction 1.53572e-011 -4.22322e-011 1   
     length 1.12949   
     axis -90 7.62852e-016 20   XYZ
    dof rx
    limits (-90.0 20.0)
  end
  begin
     id 6 
     name rhipjoint
     direction -0.728055 -0.574632 0.373811   
     length 2.66432  
     axis 0 0 0  XYZ 
  end
  begin
     id 7 
     name rfemur
     direction -0.34202 -0.939693 0   
     length 6.66732   
     axis 0 0 -20   XYZ
    dof rx ry rz
    limits (-160.0 20.0)
           (-70.0 70.0)
           (-70.0 60.0)
  end
  begin
     id 8 
     name rtibia
     direction -0.34202 -0.939693 0   
     length 6.59288   
     axis 0 0 -20   XYZ
    dof rx
    limits (-10.0 170.0)
 end
 begin
     id 9 
     name rfoot
     direction -0.119193 -0.327479 0.93731   
     length 2.38061  
     axis -90 -7.62852e-016 -20   XYZ
    dof rx rz
    limits (-45.0 90.0)
           (-20.0 70.0)
  end
  begin
     id 10 
     name rtoes
     direction -1.53547e-011 -4.21827e-011 1   
     length 1.17899   
     axis -90 -7.62852e-016 -20   XYZ
    dof rx
    limits (-90.0 20.0)
  end
  begin
     id 11 
     name lowerback
     direction -0.000416114 0.999912 -0.0132284   
     length 2.12109   
     axis 0 0 0   XYZ
    dof rx ry rz
    limits (-20.0 45.0)
           (-30.0 30.0)
           (-30.0 30.0)
  end
  begin
     id 12 
     name upperback
     direction -0.00136371 0.99809 0.0617608   
     length 2.10067   
     axis 0 0 0   XYZ
    dof rx ry rz
    limits (-20.0 45.0)
           (-30.0 30.0)
           (-30.0 30.0)
  end
  begin
     id 13 
     name thorax
     direction -3.43026e-005 0.997776 0.0666515   
     length 2.10618   
     axis 0 0 0   XYZ
    dof rx ry rz
    limits (-20.0 45.0)
           (-30.0 30.0)
           (-30.0 30.0)
  end
  begin
     id 14 
     name lowerneck
     direction 0.0398646 0.998418 0.0396592   
     length 1.83817   
     axis 0 0 0   XYZ
    dof rx ry rz
    limits (-20.0 45.0)
           (-30.0 30.0)
           (-30.0 30.0)
  end
  begin
     id 15 
     name upperneck
     direction -0.0367268 0.961527 -0.272244   
     length 1.81975   
     axis 0 0 0   XYZ
    dof rx ry rz
    limits (-20.0 45.0)
           (-30.0 30.0)
           (-30.0 30.0)
  end
  begin
     id 16
     name head
     direction -0.0182665 0.99536 -0.0944669  
     length 1.86026  
     axis 0 0 0   XYZ
    dof rx ry rz
    limits (-20.0 45.0)
           (-30.0 30.0)
           (-30.0 30.0)
  end
  begin
     id 17 
     name lclavicle
     direction 0.924239 0.361045 0.124212  
     length 3.26878  
     axis 0 0 0   XYZ
    dof ry rz
    limits (-20.0 10.0)
           (0.0 20.0)
  end
  begin
     id 18 
     name lhumerus
     direction 1 -4.48968e-011 -2.56583e-027   
     length 4.58538   
     axis 180 -30 -90   XYZ
    dof rx ry rz
    limits (-60.0 90.0)
           (-90.0 90.0)
           (-90.0 90.0)
  end
  begin
     id 19
     name lradius
     direction 1 -4.4898e-011 -5.50375e-027   
     length 2.68935   
     axis 180 -30 -90   XYZ
    dof rx
    limits (-10.0 170.0)
  end
  begin
     id 20
     name lwrist
     direction 1 -4.48939e-011 -1.48955e-026   
     length 1.34468   
     axis 9.0955e-015 90 90   XYZ
    dof ry
    limits (-180.0 0.0)
 end
  begin
     id 21 
     name lhand
     direction 1 -4.48936e-011 -2.97907e-026   
     length 0.585058   
     axis 1.90115e-014 90 90   XYZ
    dof rx rz
    limits (-90.0 90.0)
           (-45.0 45.0)
  end
  begin
     id 22 
     name lfingers
     direction 1 -4.49082e-011 -5.96235e-026   
     length 0.471689   
     axis 3.80223e-014 90 90   XYZ
    dof rx
    limits (0.0 90.0)
  end
  begin
     id 23
     name lthumb
     direction 0.707107 -6.3489e-011 0.707107   
     length 0.677253   
     axis -90 45 -3.84942e-014   XYZ
    dof rx rz
    limits (-45.0 45.0)
           (-45.0 45.0)
  end
  begin
     id 24 
     name rclavicle
     direction -0.923098 0.371783 0.0983239   
     length 3.19656  
     axis 0 0 0   XYZ 
    dof ry rz
    limits (-10.0 20.0)
           (-20.0 0.0)
  end
  begin
     id 25 
     name rhumerus
     direction -1 -4.48976e-011 -2.5492e-027  
     length 4.4745   
     axis 180 30 90   XYZ
    dof rx ry rz
    limits (-90.0 60.0)
           (-90.0 90.0)
           (-90.0 90.0)
  end
  begin
     id 26 
     name rradius
     direction -1 -4.48941e-011 -4.36555e-027   
     length 2.93896   
     axis 180 30 90   XYZ
    dof rx
    limits (-10.0 170.0)
  end
  begin
     id 27 
     name rwrist
     direction -1 -4.49044e-011 -1.49032e-026   
     length 1.46948   
     axis 9.0955e-015 -90 -90   XYZ
    dof ry
    limits (-180.0 0.0)
  end
  begin
     id 28
     name rhand
     direction -1 -4.48826e-011 -2.97749e-026   
     length 0.405092   
     axis 1.90115e-014 -90 -90   XYZ
    dof rx rz
    limits (-90.0 90.0)
           (-45.0 45.0)
  end
  begin
     id 29
     name rfingers
     direction -1 -4.49209e-011 -5.96602e-026   
     length 0.326596   
     axis 3.80223e-014 -90 -90   XYZ
    dof rx
    limits (0.0 90.0)
  end
  begin
     id 30
     name rthumb
     direction -0.707107 -6.34776e-011 0.707107   
     length 0.468928   
     axis -90 -45 3.84942e-014   XYZ
    dof rx rz
    limits (-45.0 45.0)
           (-45.0 45.0)
  end
:hierarchy
  begin
    root lhipjoint rhipjoint lowerback
    lhipjoint lfemur
    lfemur ltibia
    ltibia lfoot
    lfoot ltoes
    rhipjoint rfemur
    rfemur rtibia
    rtibia rfoot
    rfoot rtoes
    lowerback upperback
    upperback thorax
    thorax lowerneck lclavicle rclavicle
    lowerneck upperneck
    upperneck head
    lclavicle lhumerus
    lhumerus lradius
    lradius lwrist
    lwrist lhand lthumb
    lhand lfingers
    rclavicle rhumerus
    rhumerus rradius
    rradius rwrist
    rwrist rhand rthumb
    rhand rfingers
  end

#!OML:ASF H:\Punching\Project 1\Capture day 1\Session 1\female.ASF
:FULLY-SPECIFIED
:DEGREES
581
root 0.521546 15.3992 8.07743 12.5504 -4.96249 1.61117
lowerback -1.36537 0.728522 -2.32187
upperback -5.96048 0.909115 -0.447496
thorax -5.43004 0.551861 0.804246
lowerneck -9.11832 -6.39378 1.12161
upperneck 21.1038 -9.11866 0.0461688
head 7.97058 -4.25109 -1.03179
rclavicle -6.52243e-015 8.82107e-016
rhumerus 21.7691 36.8374 -76.571
rradius 89.605
rwrist -7.02527
rhand -10.1942 1.88806
rfingers 7.12502
rthumb 15.7967 -27.4874
lclavicle -6.52243e-015 8.82107e-016
lhumerus 0.319731 -53.4583 87.3314
lradius 122.458
lwrist 0.286861
lhand -22.9048 8.12229
lfingers 7.12502
lthumb 3.53501 38.0727
rfemur -40.2161 -0.758322 4.82576
rtibia 31.6504
rfoot 3.98273 -7.89994
rtoes -10.498
lfemur 5.43137 -7.90802 -15.5826
ltibia -3.18055e-015
lfoot -13.5905 26.3906
ltoes -7.00213
582
root 0.426467 15.3622 8.15168 12.4657 -4.7333 1.77139
lowerback -1.36309 0.644624 -2.33238
upperback -6.01385 0.794846 -0.464242
thorax -5.48404 0.49587 0.796212
lowerneck -8.9691 -6.44178 0.970948
upperneck 21.2867 -9.15401 -0.00196357
head 8.00921 -4.28231 -1.02552
rclavicle 3.42554e-015 -2.73329e-015
rhumerus 23.5204 35.8554 -74.7356
rradius 90.5049
rwrist -5.68388
rhand -10.3929 2.33892
rfingers 7.12502
rthumb 15.6053 -27.0516
lclavicle 3.42554e-015 -2.73329e-015
lhumerus 1.02634 -53.6115 86.4885
lradius 122.906
lwrist 0.214065
lhand -22.5189 8.00054
lfingers 7.12502
lthumb 3.90765 37.9445
rfemur -40.3634 -1.48614 5.27247
rtibia 32.9761
rfoot 2.27291 -7.1177
rtoes -10.3157
lfemur 5.83605 -8.06683 -15.4062
ltibia -3.18055e-014
lfoot -13.8504 26.378
ltoes -7.52127
583
root 0.330862 15.3262 8.22706 12.3793 -4.48622 1.90631
lowerback -1.34396 0.552623 -2.31854
upperback -6.06916 0.670145 -0.469624
thorax -5.54917 0.433928 0.786613
lowerneck -8.84274 -6.48195 0.835674
upperneck 21.4815 -9.1808 -0.0573102
head 8.05499 -4.3087 -1.02448
rclavicle 8.75468e-015 -2.5842e-015
rhumerus 25.137 34.7608 -72.913
rradius 91.4264
rwrist -4.4204
rhand -10.5307 2.68259
rfingers 7.12502
rthumb 15.4725 -26.7182
lclavicle 8.75468e-015 -2.5842e-015
lhumerus 1.5982 -53.6437 85.699
lradius 123.286
lwrist -0.0316715
lhand -22.2096 7.97204
lfingers 7.12502
lthumb 4.20641 37.9103
rfemur -40.4996 -2.10322 5.70497
rtibia 34.2933
rfoot 0.572051 -6.53315
rtoes -9.96751
lfemur 6.24124 -8.24017 -15.1993
ltibia 6.36111e-015
lfoot -14.0963 26.3786
ltoes -8.03919
584
root 0.235028 15.2913 8.30249 12.295 -4.23068 2.00726
lowerback -1.30056 0.45224 -2.27701
upperback -6.12898 0.534682 -0.459433
thorax -5.63251 0.365876 0.777995
lowerneck -8.72792 -6.51011 0.715688
upperneck 21.681 -9.19339 -0.116146
head 8.10371 -4.32751 -1.02629
rclavicle 4.07664e-016 3.62782e-015
rhumerus 26.6123 33.5685 -71.1091
rradius 92.38
rwrist -3.25133
rhand -10.654 2.85909
rfingers 7.12502
rthumb 15.3538 -26.5509
lclavicle 4.07664e-016 3.62782e-015
lhumerus 2.01385 -53.5566 84.9814
lradius 123.617
lwrist -0.395357
lhand -21.9866 8.08114
lfingers 7.12502
lthumb 4.42172 38.015
rfemur -40.6597 -2.61252 6.14123
rtibia 35.6375
rfoot -1.0849 -6.12076
rtoes -9.465
lfemur 6.63957 -8.41677 -14.9536
ltibia 1.27222e-014
lfoot -14.3309 26.3938
ltoes -8.51886
585
root 0.139468 15.2577 8.37729 12.2154 -3.9715 2.0774
lowerback -1.24061 0.34453 -2.20922
upperback -6.18628 0.390158 -0.436754
thorax -5.72237 0.292356 0.768198
lowerneck -8.63544 -6.52764 0.612977
upperneck 21.8834 -9.19509 -0.173372
head 8.15688 -4.33955 -1.03034
rclavicle 5.31205e-015 1.98785e-015
rhumerus 27.9542 32.2684 -69.324
rradius 93.3536
rwrist -2.177
rhand -10.7215 2.93465
rfingers 7.12502
rthumb 15.2888 -26.4803
lclavicle 5.31205e-015 1.98785e-015
lhumerus 2.29052 -53.3355 84.3303
lradius 123.922
lwrist -0.705244
lhand -21.7593 8.20016
lfingers 7.12502
lthumb 4.64122 38.1293
rfemur -40.8446 -3.0454 6.59442
rtibia 36.9863
rfoot -2.65019 -5.87748
rtoes -8.64277
lfemur 7.02419 -8.59228 -14.6744
ltibia -3.18055e-015
lfoot -14.5512 26.4254
ltoes -8.94085
586
root 0.0446022 15.2251 8.4507 12.1423 -3.71663 2.12114
lowerback -1.16298 0.232335 -2.1177
upperback -6.23899 0.240283 -0.405416
thorax -5.81744 0.215173 0.754662
lowerneck -8.57454 -6.53667 0.524998
upperneck 22.0924 -9.19009 -0.221971
head 8.21792 -4.34611 -1.03483
rclavicle -1.01567e-015 3.97569e-016
rhumerus 29.1804 30.8583 -67.5463
rradius 94.3441
rwrist -1.22047
rhand -10.6698 2.92964
rfingers 7.12502
rthumb 15.3386 -26.4815
lclavicle -1.01567e-015 3.97569e-016
lhumerus 2.4382 -53.0206 83.7328
lradius 124.218
lwrist -0.98983
lhand -21.5561 8.38506
lfingers 7.12502
lthumb 4.83744 38.3098
rfemur -41.0506 -3.41788 7.06952
rtibia 38.3192
rfoot -4.10462 -5.78823
rtoes -7.63957
lfemur 7.39036 -8.75951 -14.368
ltibia 2.22639e-014
lfoot -14.7601 26.4737
ltoes -9.27899
587
root -0.0491723 15.1933 8.52226 12.0821 -3.47794 2.14457
lowerback -1.06691 0.12546 -2.01119
upperback -6.28488 0.0978769 -0.371628
thorax -5.91638 0.140926 0.735428
lowerneck -8.5733 -6.54417 0.460636
upperneck 22.3148 -9.1906 -0.259502
head 8.29394 -4.35154 -1.04287
rclavicle 1.24737e-014 -6.16232e-015
rhumerus 30.2929 29.3246 -65.7643
rradius 95.3298
rwrist -0.35579
rhand -10.5675 2.81705
rfingers 7.12502
rthumb 15.4371 -26.5865
lclavicle 1.24737e-014 -6.16232e-015
lhumerus 2.49934 -52.6411 83.1585
lradius 124.53
lwrist -1.15967
lhand -21.3299 8.55387
lfingers 7.12502
lthumb 5.0558 38.4736
rfemur -41.2758 -3.74556 7.56187
rtibia 39.6125
rfoot -5.44632 -5.79019
rtoes -6.62917
lfemur 7.73205 -8.90727 -14.0443
ltibia -6.36111e-015
lfoot -14.9526 26.5402
ltoes -9.55103
588
root -0.141304 15.1623 8.59175 12.0392 -3.2522 2.15784
lowerback -0.957847 0.0195667 -1.89502
upperback -6.33331 -0.0427849 -0.332984
thorax -6.02596 0.0672088 0.716273
lowerneck -8.58954 -6.54858 0.392368
upperneck 22.5354 -9.19129 -0.274453
head 8.37416 -4.35507 -1.04368
rclavicle 6.91087e-015 7.15625e-015
rhumerus 31.2788 27.6874 -63.9804
rradius 96.288
rwrist 0.436945
rhand -10.4011 2.67571
rfingers 7.12502
rthumb 15.5974 -26.7154
lclavicle 6.91087e-015 7.15625e-015
lhumerus 2.43587 -52.2276 82.637
lradius 124.874
lwrist -1.22552
lhand -21.1324 8.69927
lfingers 7.12502
lthumb 5.24648 38.6143
rfemur -41.5081 -4.0428 8.05036
rtibia 40.8469
rfoot -6.70497 -5.83553
rtoes -5.65707
lfemur 8.0434 -9.03976 -13.7166
ltibia -1.27222e-014
lfoot -15.1181 26.63
ltoes -9.78859
589
root -0.231648 15.1317 8.65906 12.0218 -3.03893 2.15728
lowerback -0.85021 -0.0805884 -1.76318
upperback -6.37647 -0.174823 -0.293986
thorax -6.12983 -0.00321526 0.688917
lowerneck -8.64876 -6.55291 0.327594
upperneck 22.7533 -9.19927 -0.26067
head 8.46298 -4.35847 -1.0381
rclavicle 2.05618e-015 4.07509e-015
rhumerus 32.1414 25.931 -62.2027
rradius 97.1885
rwrist 1.18881
rhand -10.2559 2.59164
rfingers 7.12502
rthumb 15.7372 -26.7885
lclavicle 2.05618e-015 4.07509e-015
lhumerus 2.30199 -51.7976 82.128
lradius 125.256
lwrist -1.13311
lhand -20.9103 8.82163
lfingers 7.12502
lthumb 5.46096 38.7313
rfemur -41.7401 -4.30577 8.52844
rtibia 42.0061
rfoot -7.87798 -5.88945
rtoes -4.90563
lfemur 8.31689 -9.15538 -13.3796
ltibia 1.27222e-014
lfoot -15.2531 26.7403
ltoes -10.0174
590
root -0.320144 15.1017 8.72452 12.0326 -2.82847 2.14612
lowerback -0.754276 -0.203976 -1.63268
upperback -6.43166 -0.335974 -0.22278
thorax -6.2395 -0.0870693 0.697664
lowerneck -8.66593 -6.53457 0.204803
upperneck 22.9424 -9.17051 -0.219095
head 8.53902 -4.34759 -1.00811
rclavicle -6.12816e-015 1.05356e-014
rhumerus 32.9032 24.161 -60.4047
rradius 97.9872
rwrist 1.98271
rhand -10.3401 2.64685
rfingers 7.12502
rthumb 15.6561 -26.7397
lclavicle -6.12816e-015 1.05356e-014
lhumerus 1.99069 -51.2881 81.7177
lradius 125.673
lwrist -0.931261
lhand -20.7104 8.94432
lfingers 7.12502
lthumb 5.65396 38.8489
rfemur -41.9663 -4.54049 8.98454
rtibia 43.0873
rfoot -8.97614 -5.92886
rtoes -4.36882
lfemur 8.55028 -9.26323 -13.0359
ltibia -1.90833e-014
lfoot -15.3599 26.8723
ltoes -10.2437
591
root -0.406444 15.0729 8.78841 12.0762 -2.61035 2.12874
lowerback -0.677063 -0.325191 -1.49231
upperback -6.48341 -0.493037 -0.151111
thorax -6.33535 -0.16962 0.701699
lowerneck -8.71232 -6.52069 0.0873962
upperneck 23.1151 -9.15302 -0.157611
head 8.61583 -4.33955 -0.97419
rclavicle 9.48886e-015 1.74931e-014
rhumerus 33.5263 22.281 -58.6275
rradius 98.665
rwrist 2.83907
rhand -10.6377 2.9026
rfingers 7.12502
rthumb 15.3694 -26.5062
lclavicle 9.48886e-015 1.74931e-014
lhumerus 1.61782 -50.7913 81.3254
lradius 126.116
lwrist -0.609171
lhand -20.5517 9.03785
lfingers 7.12502
lthumb 5.80718 38.9383
rfemur -42.1902 -4.7675 9.41599
rtibia 44.0974
rfoot -10.0003 -5.93793
rtoes -4.0196
lfemur 8.73387 -9.37294 -12.6863
ltibia 0
lfoot -15.4512 27.0179
ltoes -10.4597
592
root -0.490617 15.0454 8.8509 12.1536 -2.37695 2.10147
lowerback -0.625143 -0.451287 -1.3455
upperback -6.53514 -0.655064 -0.0689714
thorax -6.41692 -0.254861 0.713579
lowerneck -8.7556 -6.50574 -0.0299518
upperneck 23.2513 -9.13531 -0.0840507
head 8.68035 -4.33085 -0.93505
rclavicle 6.74625e-015 6.36111e-015
rhumerus 34.0136 20.3106 -56.8803
rradius 99.2413
rwrist 3.69946
rhand -11.0731 3.26906
rfingers 7.12502
rthumb 14.95 -26.1714
lclavicle 6.74625e-015 6.36111e-015
lhumerus 1.1644 -50.2918 80.9739
lradius 126.57
lwrist -0.228306
lhand -20.4674 9.13785
lfingers 7.12502
lthumb 5.88859 39.036
rfemur -42.4233 -4.99467 9.83368
rtibia 45.0552
rfoot -10.9473 -5.9255
rtoes -3.84351
lfemur 8.86645 -9.49028 -12.3249
ltibia -1.27222e-014
lfoot -15.5305 27.1753
ltoes -10.6518
593
root -0.572557 15.0195 8.91205 12.2635 -2.12177 2.07109
lowerback -0.60121 -0.573967 -1.19497
upperback -6.57754 -0.811602 0.0117409
thorax -6.47305 -0.337919 0.721668
lowerneck -8.8405 -6.50213 -0.114568
upperneck 23.3672 -9.13707 -0.0164719
head 8.74372 -4.32896 -0.906089
rclavicle 4.16205e-016 -7.95139e-015
rhumerus 34.3501 18.2187 -55.185
rradius 99.6921
rwrist 4.61528
rhand -11.6432 3.7163
rfingers 7.12502
rthumb 14.4008 -25.7641
lclavicle 4.16205e-016 -7.95139e-015
lhumerus 0.670935 -49.8107 80.6429
lradius 127.015
lwrist 0.168404
lhand -20.4311 9.17946
lfingers 7.12502
lthumb 5.92365 39.0767
rfemur -42.6757 -5.23774 10.2412
rtibia 45.9803
rfoot -11.8235 -5.90366
rtoes -3.732
lfemur 8.94685 -9.62217 -11.9573
ltibia -9.54166e-015
lfoot -15.6039 27.3369
ltoes -10.8116
